HIERARCHY
ROOT pelvis
{
  OFFSET 0 100 0
  CHANNELS 6 Xposition Yposition Zposition Zrotation Xrotation Yrotation
  JOINT pelvis_right_femur
  {
    OFFSET -10.78128 -3.44521 -0.5502486
    CHANNELS 3 Zrotation Xrotation Yrotation
    JOINT right_femur_tibia
    {
      OFFSET -0.8047443 -44.0398 -0.1307829
      CHANNELS 3 Zrotation Xrotation Yrotation
      JOINT right_tibia_foot
      {
        OFFSET 3.006224 -47.83518 -5
        CHANNELS 3 Zrotation Xrotation Yrotation
        End Site
        {
          OFFSET 0 -5 15
        }
      }
    }
  }
  JOINT pelvis_left_femur
  {
    OFFSET 10.78128 -3.44521 -0.5502486
    CHANNELS 3 Zrotation Xrotation Yrotation
    JOINT left_femur_tibia
    {
      OFFSET 0.8047443 -44.0398 -0.1307829
      CHANNELS 3 Zrotation Xrotation Yrotation
      JOINT left_tibia_foot
      {
        OFFSET -4.370144 -48.10324 -4.275266
        CHANNELS 3 Zrotation Xrotation Yrotation
        End Site
        {
          OFFSET 0 -5 15
        }
      }
    }
  }
  JOINT pelvis_spine1
  {
    OFFSET 0 6.468898 -3.129235
    CHANNELS 3 Zrotation Xrotation Yrotation
    JOINT spine1
    {
      OFFSET 0 23.15396 4.99043
      CHANNELS 3 Zrotation Xrotation Yrotation
      JOINT spine2
      {
        OFFSET 0 20.79997 -5.064912
        CHANNELS 3 Zrotation Xrotation Yrotation
        JOINT neck
        {
          OFFSET 0 14.38658 9.616178
          CHANNELS 3 Zrotation Xrotation Yrotation
          End Site
          {
            OFFSET 0 20 0
          }
        }
      }
      JOINT right_manubrium
      {
        OFFSET -5.722621 16.35077 3.967754
        CHANNELS 3 Zrotation Xrotation Yrotation
        JOINT right_clavicle
        {
          OFFSET -13.16364 1.694482 -4.693211
          CHANNELS 3 Zrotation Xrotation Yrotation
          JOINT right_humerus
          {
            OFFSET -28.5034 -0.3100689 -2.792744
            CHANNELS 3 Zrotation Xrotation Yrotation
            JOINT right_radius
            {
              OFFSET -25.15693 0.02248979 -1.271978
              CHANNELS 3 Zrotation Xrotation Yrotation
              End Site
              {
                OFFSET -15 0 0
              }
            }
          }
        }
      }
      JOINT left_manubrium
      {
        OFFSET 5.722621 16.35077 3.967754
        CHANNELS 3 Zrotation Xrotation Yrotation
        JOINT left_clavicle
        {
          OFFSET 13.16364 1.694482 -4.693211
          CHANNELS 3 Zrotation Xrotation Yrotation
          JOINT left_humerus
          {
            OFFSET 29.39168 -1.063119 -2.237045
            CHANNELS 3 Zrotation Xrotation Yrotation
            JOINT left_radius
            {
              OFFSET 24.59957 -0.9528479 0.9047498
              CHANNELS 3 Zrotation Xrotation Yrotation
              End Site
              {
                OFFSET 15 -0 -0
              }
            }
          }
        }
      }
    }
  }
}
MOTION
Frames: 10
Frame Time: 0.0416666666667
15.19445 103.0644 225.2448 1.226766 -6.697634 -1.872369 0.8765794 11.75159 6.538595 -2.701522e-10 37.46873 -8.279693e-11 0.423138 -10.76545 -3.220315 -3.354188 -17.49334 -9.857645 -1.741229e-09 23.0749 1.38919e-09 -1.317422 -7.10998 21.38011 -2.52046 0.1690859 7.206235 -0.5457188 9.827077 -3.328716 2.390729 22.71273 5.500484 2.245835 -17.8327 7.861211 3.247053 -20.49346 11.13042 81.11621 28.90581 -5.861709 -9.351363e-11 -7.378056e-10 21.45502 -21.49569 12.3381 13.22535 3.282631 -14.7609 -2.593626 -93.06353 22.90252 23.92049 7.61985e-11 -3.638161e-10 -8.578245 1.076458 8.522266 13.02874
15.9111 103.5472 230.9589 1.516022 -7.271117 -1.657092 0.1697255 9.789641 6.708411 -8.267203e-11 42.23725 -3.39433e-10 1.756109 -9.072355 -4.187945 -4.104903 -14.56939 -10.21789 -3.007369e-09 22.53748 2.160957e-09 -1.725439 -8.212399 21.26016 -2.877416 0.4175543 6.73579 -0.7127933 9.559897 -3.321246 2.560231 22.96395 5.653486 2.152746 -17.15387 8.210723 3.408222 -19.37849 10.84895 81.72425 28.8957 -6.35698 -1.12943e-10 -1.206005e-09 20.39254 -21.87891 12.47528 13.22934 3.326689 -14.37188 -2.638982 -91.9929 23.41646 21.82904 9.826741e-11 -6.097382e-10 -9.063238 0.6836409 7.891462 13.56985
16.62196 104.2151 236.7913 1.85187 -7.748266 -1.199655 -0.5436678 6.565554 6.750391 2.045284e-10 47.52094 -6.754348e-10 3.067742 -7.054118 -5.307082 -5.057548 -10.40414 -10.85319 -4.275598e-09 21.22544 2.879357e-09 -1.964066 -9.843199 21.12876 -3.301653 0.6326937 6.096598 -0.8235393 9.272419 -3.453701 2.713475 23.27022 5.892285 2.086951 -16.59823 8.647467 3.627342 -18.13007 10.55442 82.79416 29.02871 -7.367658 -1.305936e-10 -1.671102e-09 19.00397 -22.10309 12.57429 13.10361 3.470679 -14.1487 -2.732694 -90.9079 24.02281 19.35509 1.119673e-10 -8.562894e-10 -9.947828 0.4195757 7.417885 13.983
17.31686 105.0169 242.6159 2.104745 -7.817231 -0.5621782 -0.9477184 2.260714 6.583498 5.149805e-10 51.10892 -9.900448e-10 3.858318 -5.270404 -6.249126 -5.912598 -5.589506 -11.59017 -5.105279e-09 19.59847 3.289047e-09 -1.939297 -11.64236 20.83401 -3.637487 0.7264845 5.383431 -0.7717836 8.995976 -3.77725 2.778091 23.41356 6.147998 2.07439 -16.36304 9.008861 3.858152 -16.94426 10.28487 83.74606 29.30309 -8.812879 -1.480817e-10 -1.971532e-09 17.3853 -21.78313 12.56905 12.6605 3.704658 -14.22608 -2.843808 -89.59457 24.60333 16.85137 1.079387e-10 -1.017212e-09 -11.26359 0.4241421 7.28988 14.02219
17.98892 105.8498 248.3346 2.232866 -7.539814 0.1876083 -1.009383 -2.482648 6.185186 7.549075e-10 52.49815 -1.192549e-09 3.948999 -3.831336 -6.84241 -6.53507 -0.7961765 -12.30119 -5.395139e-09 17.92354 3.342704e-09 -1.619724 -13.34373 20.45015 -3.83058 0.6809267 4.690876 -0.5796066 8.816642 -4.240233 2.749054 23.41462 6.378455 2.123058 -16.4759 9.240578 4.010914 -16.0303 10.09896 84.64885 29.57369 -10.54941 -1.529376e-10 -2.06412e-09 15.74941 -21.06775 12.44784 12.00351 4.010695 -14.65766 -3.005371 -88.32654 24.96876 14.68986 8.823529e-11 -1.07019e-09 -12.83237 0.7917074 7.576064 13.55308
18.62512 106.6161 253.8708 2.20186 -6.972207 0.9675191 -0.7209653 -7.20595 5.592964 8.47238e-10 51.36535 -1.210772e-09 3.275588 -2.824651 -6.997945 -6.854534 3.506912 -12.89562 -5.13855e-09 16.55285 3.068911e-09 -1.041954 -14.73652 19.98864 -3.843841 0.4983283 4.08341 -0.2646465 8.769479 -4.797718 2.630523 23.26795 6.546769 2.227727 -16.90955 9.303352 4.034949 -15.47072 10.02024 85.43181 29.74919 -12.43327 -1.381795e-10 -1.940571e-09 14.20882 -20.04789 12.21382 11.19218 4.361337 -15.4344 -3.222682 -87.17726 25.03296 13.05333 5.887286e-11 -1.010171e-09 -14.53135 1.54845 8.250556 12.53359
19.20059 107.2354 259.1312 1.996825 -6.104357 1.703678 -0.1303714 -11.83454 4.891839 8.022104e-10 47.7674 -1.055595e-09 1.923699 -2.282488 -6.727389 -6.886723 7.270684 -13.37538 -4.390075e-09 15.46105 2.519315e-09 -0.2711601 -15.78246 19.3843 -3.684487 0.1935451 3.553833 0.1648766 8.789709 -5.419871 2.428265 22.89352 6.635391 2.366627 -17.57363 9.180887 3.948091 -15.16787 9.996586 85.69083 29.84704 -14.28362 -1.009955e-10 -1.619249e-09 12.73458 -18.65445 11.84235 10.19516 4.724133 -16.43286 -3.451663 -85.80262 24.84633 11.81178 2.653478e-11 -8.456332e-10 -16.27823 2.616922 9.193953 11.03965
19.68645 107.6897 264.1878 1.716529 -5.335017 2.370327 0.6246412 -16.06761 4.1931 7.158299e-10 43.05125 -8.659864e-10 0.3783761 -1.917754 -6.382865 -6.750826 10.50052 -13.60381 -3.604478e-09 15.7975 2.010748e-09 0.3877632 -16.46481 18.71901 -3.409989 -0.107098 3.131597 0.6107467 8.942948 -6.046137 2.230345 22.58724 6.666208 2.512664 -18.28859 8.994375 3.766794 -15.003 10.0731 86.36152 29.78542 -16.29502 -7.294724e-11 -1.289511e-09 11.29234 -17.42774 11.54205 9.251184 5.080298 -17.62445 -3.746591 -84.81065 24.4223 10.80641 9.30593e-13 -6.752822e-10 -18.14677 3.875172 10.14963 9.343135
20.06329 107.9918 269.0306 1.368975 -4.527032 2.931321 1.461492 -19.89949 3.580903 6.200913e-10 37.53878 -6.619313e-10 -1.268827 -1.821421 -5.934581 -6.497814 13.21265 -13.71047 -2.719006e-09 16.64755 1.467248e-09 0.976463 -16.87608 17.97055 -3.068637 -0.4150189 2.785013 1.070938 9.096208 -6.643838 2.022569 22.19246 6.643942 2.64666 -18.99302 8.733671 3.559145 -14.88946 10.15463 86.68164 29.69296 -18.12421 -4.263113e-11 -9.297826e-10 9.934374 -16.14054 11.22268 8.288236 5.394541 -18.78726 -4.01059 -83.68703 23.91652 9.949227 -1.725692e-11 -4.876809e-10 -19.92341 5.150082 11.03838 7.610234
20.32659 108.1695 273.7059 1.038045 -3.847049 3.391747 2.243661 -23.10075 3.127697 5.488013e-10 32.32585 -5.006579e-10 -2.663989 -1.830928 -5.572271 -6.226823 15.40872 -13.67455 -1.975673e-09 18.06919 1.03214e-09 1.351757 -17.06389 17.19655 -2.728951 -0.6593746 2.510527 1.475291 9.217235 -7.148278 1.850408 21.80325 6.587231 2.743592 -19.53658 8.468161 3.369053 -14.71697 10.21281 86.77855 29.58214 -19.66805 -2.652096e-11 -6.408816e-10 8.68837 -15.00489 10.96253 7.419078 5.638106 -19.76763 -4.227416 -82.5114 23.41227 9.101751 -2.68115e-11 -3.358877e-10 -21.49822 6.241963 11.69273 6.116025
